<svg xmlns="http://www.w3.org/2000/svg" width="14" height="14" viewBox="0 0 14 14" fill="none">
    <path d="M6.67003 13.1875L9.2365 9.1625L11.2542 9.3065C11.6251 9.3333 11.9943 9.2362 12.3041 9.0305L13.2549 8.3925C13.4841 8.2395 13.672 8.0325 13.802 7.7896C13.9319 7.5467 14 7.2755 14 7C14 6.72453 13.9319 6.45327 13.802 6.2104C13.672 5.96747 13.4841 5.7604 13.2549 5.6076L12.3006 4.9712C11.9908 4.76553 11.6216 4.66827 11.2507 4.69467L9.2342 4.84167L6.6677 0.81667C6.5107 0.567 6.29298 0.36117 6.03493 0.21836C5.77688 0.0755499 5.4869 0.00043 5.19198 0H4.08371C3.92899 0 3.78066 0.06146 3.67127 0.17085C3.56188 0.28025 3.50041 0.42863 3.50041 0.58333C3.50055 0.63514 3.50741 0.68673 3.52081 0.73673L4.72534 5.16073L3.72207 5.23253L2.50467 4.01273C2.34268 3.84967 2.14989 3.7204 1.93751 3.63233C1.72512 3.54433 1.4974 3.49933 1.26755 3.5H0.583898C0.497628 3.5 0.412448 3.5192 0.334478 3.55613C0.256508 3.593 0.187698 3.6468 0.133008 3.71353C0.0786478 3.7804 0.0396579 3.85847 0.0187879 3.94213C-0.00207213 4.0258 -0.00430217 4.11307 0.0122678 4.19767L0.572228 6.99767L0.0122678 9.7977C-0.00543217 9.8826 -0.00396205 9.9704 0.016568 10.0547C0.037088 10.139 0.0761578 10.2176 0.130908 10.2849C0.185678 10.3521 0.254748 10.4064 0.333108 10.4437C0.411478 10.4808 0.497148 10.5001 0.583898 10.5H1.26755C1.4974 10.5005 1.72505 10.4555 1.93744 10.3675C2.14976 10.2794 2.34262 10.1502 2.50467 9.9873L3.7244 8.7675L4.72768 8.8393L3.52081 13.2633C3.50735 13.3133 3.50048 13.3649 3.50041 13.4167C3.50041 13.5714 3.56188 13.7197 3.6712 13.8291C3.78066 13.9385 3.92899 14 4.08371 14H5.19198C5.48683 14.0001 5.77695 13.9256 6.03533 13.7835C6.29378 13.6415 6.5121 13.4364 6.67003 13.1875ZM4.8478 1.16667H5.19198C5.29051 1.16667 5.3875 1.19167 5.47377 1.23933C5.56009 1.28693 5.63289 1.35567 5.68542 1.43907L7.9113 4.93327L5.91407 5.075L4.8478 1.16667ZM1.67992 9.1625C1.57713 9.2647 1.44027 9.3255 1.29554 9.3333L1.73885 7.1167C1.75438 7.0412 1.75438 6.9634 1.73885 6.888L1.29554 4.66667C1.44027 4.67407 1.57719 4.73473 1.67992 4.837L3.08797 6.2452C3.1469 6.30467 3.2179 6.35073 3.29623 6.38033C3.37456 6.40993 3.45828 6.42233 3.54181 6.41667L9.0248 6.02467H9.0283L11.3359 5.8596C11.4482 5.85153 11.5601 5.88107 11.6538 5.9436L12.6075 6.5794C12.6733 6.62827 12.7268 6.6918 12.7637 6.76507C12.8006 6.83833 12.8198 6.9192 12.8198 7.0012C12.8198 7.0831 12.8006 7.164 12.7637 7.2372C12.7268 7.3105 12.6733 7.3741 12.6075 7.4229L11.6543 8.0587C11.5605 8.1211 11.4487 8.1507 11.3364 8.1427L9.0295 7.9783H9.0225L3.54181 7.5833C3.45848 7.5773 3.37482 7.5894 3.29649 7.6186C3.21823 7.6478 3.1471 7.6934 3.08797 7.7525L1.67992 9.1625ZM4.8478 12.8333L5.91407 8.925L7.9113 9.0673L5.68602 12.5615C5.63336 12.6449 5.56043 12.7135 5.47403 12.7611C5.38764 12.8086 5.29058 12.8335 5.19198 12.8333H4.8478Z" fill="#4361EE"/>
</svg>