<svg xmlns="http://www.w3.org/2000/svg" width="20" height="20" viewBox="0 0 20 20" fill="none">
    <path d="M3.33203 7.5V15.8333C3.33203 16.2754 3.50763 16.6993 3.82019 17.0118C4.13275 17.3244 4.55667 17.5 4.9987 17.5H14.9987C15.4407 17.5 15.8646 17.3244 16.1772 17.0118C16.4898 16.6993 16.6654 16.2754 16.6654 15.8333V7.5M3.33203 7.5V5.83333C3.33203 5.39131 3.50763 4.96738 3.82019 4.65482C4.13275 4.34226 4.55667 4.16667 4.9987 4.16667H6.66536M3.33203 7.5H16.6654M16.6654 7.5V5.83333C16.6654 5.39131 16.4898 4.96738 16.1772 4.65482C15.8646 4.34226 15.4407 4.16667 14.9987 4.16667H13.332M6.66536 4.16667H13.332M6.66536 4.16667V2.5M13.332 4.16667V2.5" stroke="#4361EE" stroke-width="1.66667" stroke-linecap="round" stroke-linejoin="round"/>
</svg>