<svg xmlns="http://www.w3.org/2000/svg" width="20" height="20" viewBox="0 0 20 20" fill="none">
    <path d="M12.5 5V4.16667C12.5 3.72464 12.3244 3.30072 12.0119 2.98816C11.6993 2.67559 11.2754 2.5 10.8334 2.5H9.16671C8.72468 2.5 8.30076 2.67559 7.9882 2.98816C7.67564 3.30072 7.50004 3.72464 7.50004 4.16667V5M12.5 5H15C15.4421 5 15.866 5.17559 16.1786 5.48816C16.4911 5.80072 16.6667 6.22464 16.6667 6.66667V15C16.6667 15.442 16.4911 15.866 16.1786 16.1785C15.866 16.4911 15.4421 16.6667 15 16.6667H14.1667M12.5 5H7.50004M7.50004 5H5.00004C4.55801 5 4.13409 5.17559 3.82153 5.48816C3.50897 5.80072 3.33337 6.22464 3.33337 6.66667V15C3.33337 15.442 3.50897 15.866 3.82153 16.1785C4.13409 16.4911 4.55801 16.6667 5.00004 16.6667H5.83337M7.50004 8.33333V13.3333M12.5 13.3333V8.33333M5.83337 16.6667V17.5M5.83337 16.6667H14.1667M14.1667 16.6667V17.5" stroke="#4361EE" stroke-width="1.66667" stroke-linecap="round" stroke-linejoin="round"/>
</svg>