<svg xmlns="http://www.w3.org/2000/svg" width="20" height="20" viewBox="0 0 20 20" fill="none">
    <path d="M15.0259 14.1809L18.5951 17.7492L17.4159 18.9284L13.8476 15.3592C12.5199 16.4235 10.8684 17.0024 9.16675 17C5.02675 17 1.66675 13.64 1.66675 9.5C1.66675 5.36 5.02675 2 9.16675 2C13.3067 2 16.6667 5.36 16.6667 9.5C16.6692 11.2017 16.0903 12.8531 15.0259 14.1809ZM13.3542 13.5625C14.4118 12.4749 15.0025 11.0171 15.0001 9.5C15.0001 6.27666 12.3892 3.66666 9.16675 3.66666C5.94341 3.66666 3.33341 6.27666 3.33341 9.5C3.33341 12.7225 5.94341 15.3334 9.16675 15.3334C10.6838 15.3357 12.1417 14.7451 13.2292 13.6875L13.3542 13.5625Z" fill="#4361EE"/>
</svg>