<svg xmlns="http://www.w3.org/2000/svg" width="40" height="36" viewBox="0 0 40 36" fill="none">
    <path d="M19.5397 13.1887V17.8452H17.4701C13.6594 17.8452 11.7542 15.9481 11.7542 12.154V8.50749H10.0295V3.94963H11.7542V0.598846H17.2237V3.94963H19.4904V8.50749H17.2237V12.2525C17.2237 12.5812 17.3015 12.819 17.4578 12.9669C17.6138 13.1148 17.8724 13.1887 18.2339 13.1887H19.5397Z" fill="#4361EE"/>
    <path d="M29.1481 4.57778C29.9527 4.09346 30.7903 3.85099 31.6611 3.85099V9.69026H30.1089C29.0742 9.69026 28.3144 9.87114 27.8301 10.2323C27.3453 10.5937 27.1033 11.2344 27.1033 12.154V17.8452H21.6337V3.94964H27.1033V6.51185C27.6613 5.70727 28.3431 5.06251 29.1481 4.57778Z" fill="#4361EE"/>
    <path d="M8.0566 30.1123L10.2739 21.4152H16.0884L11.4566 35.3108H4.63204L0 21.4152H5.81449L8.0566 30.1123Z" fill="#4361EE"/>
    <path d="M33.9388 30.149C34.2837 29.7468 34.4561 29.1513 34.4561 28.3628C34.4561 27.5745 34.2837 26.9794 33.9388 26.5767C33.5938 26.1744 33.1664 25.9731 32.6575 25.9731C32.1483 25.9731 31.7213 26.1744 31.3763 26.5767C31.0314 26.9794 30.859 27.5745 30.859 28.3628C30.859 29.1513 31.0271 29.7468 31.364 30.149C31.7006 30.552 32.1317 30.7527 32.6575 30.7527C33.1664 30.7527 33.5938 30.552 33.9388 30.149ZM28.8881 34.6208C27.7709 34.0461 26.8963 33.2207 26.2641 32.1447C25.6317 31.0691 25.3157 29.8084 25.3157 28.3628C25.3157 26.9178 25.6317 25.6571 26.2641 24.581C26.8963 23.5055 27.7709 22.6802 28.8881 22.1049C30.0048 21.5302 31.2613 21.2428 32.6575 21.2428C34.0534 21.2428 35.3099 21.5302 36.4272 22.1049C37.5438 22.6802 38.4184 23.5055 39.051 24.581C39.683 25.6571 39.9996 26.9178 39.9996 28.3628C39.9996 29.8084 39.683 31.0691 39.051 32.1447C38.4184 33.2207 37.5438 34.0461 36.4272 34.6208C35.3099 35.1961 34.0534 35.4832 32.6575 35.4832C31.2613 35.4832 30.0048 35.1961 28.8881 34.6208Z" fill="#4361EE"/>
    <path d="M35.2046 17.8582C35.2046 17.2303 35.7136 16.7213 36.3414 16.7213C36.9693 16.7213 37.4784 17.2303 37.4784 17.8582H39.5437V3.94969H37.4784C37.4784 4.57743 36.9693 5.08647 36.3414 5.08647C35.7136 5.08647 35.2046 4.57743 35.2046 3.94969H33.1393V17.8582H35.2046Z" fill="#4361EE"/>
    <path d="M21.8808 21.4023C21.8808 22.0301 21.3718 22.5391 20.744 22.5391C20.116 22.5391 19.607 22.0301 19.607 21.4023H17.5417V35.3108H19.607C19.607 34.6828 20.116 34.1738 20.744 34.1738C21.3718 34.1738 21.8808 34.6828 21.8808 35.3108H23.9461V21.4023H21.8808Z" fill="#4361EE"/>
</svg>